cover 
http://www.radiofunn.ro/wp-content/uploads/2010/09/The-American-2010.jpg
Genre:Drama | Thriller
Language: English
IMDB:http://www.imdb.com/title/tt1440728/
Source:DVD5 RUS/Audio.TWiZTED.Thx

General
Complete name :The.American.R5.LiNE.H264.Feel-Free.mp4
Format : MPEG-4
Format profile : Base Media
Codec ID : isom
File size : 701 MiB
Duration : 1h 40mn
Overall bit rate : 974 Kbps
Video #2
Codec ID : avc1
Codec ID/Info : Advanced Video Coding
Duration : 1h 40mn
Bit rate mode : Variable
Bit rate : 809 Kbps
Width : 720 pixels
Height : 304 pixels
Display aspect ratio : 2.35:1
Frame rate mode : Constant
Frame rate : 23.976 fps
Original frame rate : 23.000 fps
Resolution : 24 bits
Colorimetry : 4:2:0
Scan type : Progressive
Bits/(Pixel*Frame) : 0.154
Stream size : 582 MiB (83%)
Audio #1
ID : 1
Format : AAC
Format/Info : Advanced Audio Codec
Format version : Version 4
Format profile : LC
Format settings, SBR : No
Codec ID : 40
Duration : 1h 40mn
Bit rate mode : Constant
Bit rate : 160 Kbps
Channel(s) : 2 channels
Channel positions : L R
Sampling rate : 48.0 KHz
Resolution : 16 bits
Stream size : 115 MiB (16%)

Plot
An assassin hides out in Italy for one last assignment.

screens
 
http://img233.imageshack.us/img233/4278/theamericanr5lineh264fe.jpg 
http://img831.imageshack.us/img831/4278/theamericanr5lineh264fe.jpg 
http://img844.imageshack.us/img844/4278/theamericanr5lineh264fe.jpg 
http://img185.imageshack.us/img185/4278/theamericanr5lineh264fe.jpg